<?xml version="1.0" encoding="UTF-8" standalone="no"?>
<svg
   xmlns:dc="http://purl.org/dc/elements/1.1/"
   xmlns:cc="http://creativecommons.org/ns#"
   xmlns:rdf="http://www.w3.org/1999/02/22-rdf-syntax-ns#"
   xmlns:svg="http://www.w3.org/2000/svg"
   xmlns="http://www.w3.org/2000/svg"
   xmlns:sodipodi="http://sodipodi.sourceforge.net/DTD/sodipodi-0.dtd"
   xmlns:inkscape="http://www.inkscape.org/namespaces/inkscape"
   version="1.1"
   id="svg146"
   xml:space="preserve"
   width="345.21902"
   height="285.83325"
   viewBox="0 0 345.21903 285.83324"
   sodipodi:docname="wt1.svg"
   inkscape:version="1.0.2 (e86c870879, 2021-01-15)"><metadata
     id="metadata152"><rdf:RDF><cc:Work
         rdf:about=""><dc:format>image/svg+xml</dc:format><dc:type
           rdf:resource="http://purl.org/dc/dcmitype/StillImage" /><dc:title></dc:title></cc:Work></rdf:RDF></metadata><defs
     id="defs150"><clipPath
       clipPathUnits="userSpaceOnUse"
       id="clipPath278"><path
         d="M 0,0 H 471.02811 V 390.19299 H 0 Z"
         id="path276" /></clipPath></defs><sodipodi:namedview
     pagecolor="#ffffff"
     bordercolor="#666666"
     borderopacity="1"
     objecttolerance="10"
     gridtolerance="10"
     guidetolerance="10"
     inkscape:pageopacity="0"
     inkscape:pageshadow="2"
     inkscape:window-width="1920"
     inkscape:window-height="1009"
     id="namedview148"
     showgrid="false"
     inkscape:zoom="0.74297116"
     inkscape:cx="169.51397"
     inkscape:cy="-61.012379"
     inkscape:window-x="0"
     inkscape:window-y="34"
     inkscape:window-maximized="1"
     inkscape:current-layer="g266" /><g
     id="g154"
     inkscape:groupmode="layer"
     inkscape:label="A14_Report"
     transform="matrix(1.3333333,0,0,-1.3333333,-227.33936,500.24758)"><g
       id="g156"
       transform="translate(58.439688,772.03972)"><text
         transform="matrix(1,0,0,-1,-29.48,17.525)"
         style="font-variant:normal;font-size:14.3462px;font-family:LMRoman12-Bold-Identity;-inkscape-font-specification:LMRoman12-Bold-Identity-H;writing-mode:lr-tb;fill:#000000;fill-opacity:1;fill-rule:nonzero;stroke:none"
         id="text160"><tspan
           x="0 8.076911 12.567271 20.644182 25.134542 47.543308 58.762035 67.728409 80.467834 86.751472 93.350723 101.1981 110.16447 116.53418 121.46928 129.54619 136.14543 149.60217 156.96178"
           y="0"
           sodipodi:role="line"
           id="tspan158">1.2.1Thetransformer</tspan></text><text
         transform="matrix(1,0,0,-1,-29.48,-4.65)"
         style="font-variant:normal;font-size:11.9552px;font-family:LMRoman12-Regular-Identity;-inkscape-font-specification:LMRoman12-Regular-Identity-H;writing-mode:lr-tb;fill:#000000;fill-opacity:1;fill-rule:nonzero;stroke:none"
         id="text166"><tspan
           x="0 8.4523268 14.955956 24.974413 29.529345 34.084274 39.942322 46.445953 51.060658 54.635265 60.493313 65.048241 74.803688 80.004196 89.38903 96.215446 101.41596 105.97089 109.54549 115.40355 119.95847 129.71391 139.14658 149.83452 159.58997 165.44801 170.00294 176.50658 181.70709 191.46252 197.32057 201.8755 205.12732 210.32784 216.18588 224.25565 228.81058 233.36551 239.22356 245.72719 250.34189 253.91649 259.77454 264.32947 278.91483 284.77286 296.09445 300.64938 307.15298 317.18341 321.79813 328.30176 334.80539 341.30899 344.56082 347.81262 353.01315 364.33472 367.58655 377.34198 383.20001 389.05807 394.25858 405.49646 413.94879 420.45242 430.47089 435.02582 439.58075 445.43878 451.94241 456.55713 460.13174 465.98978 470.54471 485.13007 494.57468 501.07831 505.69299"
           y="0"
           sodipodi:role="line"
           id="tspan162">Thetransformerperformsamathematicaltransformonthesuppliedimage.Thetransformmust</tspan><tspan
           x="0 4.614707 10.472755 15.027686 18.279501 22.894209 26.468813 36.535091 46.290535 52.160538 57.36105 67.42733 73.930954 78.485886 84.343933 91.170357 96.370865 100.9258 105.48073 108.73254 113.93306 118.54776 125.69698 132.20061 138.05865 147.81409 153.0146 156.26642 162.44725"
           y="14.446"
           sodipodi:role="line"
           id="tspan164">satisfy2keyproperties,namely:</tspan></text><text
         transform="matrix(1,0,0,-1,-14.68,-43.504)"
         style="font-variant:normal;font-size:11.9552px;font-family:LMRoman12-Regular-Identity;-inkscape-font-specification:LMRoman12-Regular-Identity-H;writing-mode:lr-tb;fill:#000000;fill-opacity:1;fill-rule:nonzero;stroke:none"
         id="text170"><tspan
           x="0"
           y="0"
           id="tspan168">•</tspan></text><text
         transform="matrix(1,0,0,-1,0.408,-43.504)"
         style="font-variant:normal;font-size:11.9552px;font-family:LMRoman12-Regular-Identity;-inkscape-font-specification:LMRoman12-Regular-Identity-H;writing-mode:lr-tb;fill:#000000;fill-opacity:1;fill-rule:nonzero;stroke:none"
         id="text174"><tspan
           x="0 6.6590462 13.162675 16.41449 23.551744 26.803558 32.996353 38.854401 44.054913 48.609844 53.164776 56.416588 62.920219 66.172035 69.423843 72.675659 76.907799"
           y="0"
           sodipodi:role="line"
           id="tspan172">Fullinvertibility</tspan></text><text
         transform="matrix(1,0,0,-1,-14.68,-67.912)"
         style="font-variant:normal;font-size:11.9552px;font-family:LMRoman12-Regular-Identity;-inkscape-font-specification:LMRoman12-Regular-Identity-H;writing-mode:lr-tb;fill:#000000;fill-opacity:1;fill-rule:nonzero;stroke:none"
         id="text178"><tspan
           x="0"
           y="0"
           id="tspan176">•</tspan></text><text
         transform="matrix(1,0,0,-1,0.408,-67.912)"
         style="font-variant:normal;font-size:11.9552px;font-family:LMRoman12-Regular-Identity;-inkscape-font-specification:LMRoman12-Regular-Identity-H;writing-mode:lr-tb;fill:#000000;fill-opacity:1;fill-rule:nonzero;stroke:none"
         id="text188"><tspan
           x="0 6.5036287 11.704141 18.207769 24.065817 28.620749 34.478798 40.982426 44.234241 47.486053 50.737869 54.970009"
           y="0"
           sodipodi:role="line"
           id="tspan180">Separability</tspan><tspan
           x="-11.956 2.3185089 5.8931136 11.093626 25.057299 29.61223 34.16716 40.025211 46.528839 51.143547 54.718151 60.576199 65.131126 74.886574 85.024582 89.579514 96.083145 101.94119 112.00747 116.62218 122.48022 127.03516 130.28697 134.90167 138.47629 150.16847 154.7234 161.22702 166.42754 171.04225 181.7541 186.95462 192.81267 199.3163 205.81992 209.07173 213.62666 216.87848 222.73653 229.24016 239.36621 245.22426 249.77919 260.49106 265.04599 271.54962 282.26147 288.93246 294.79053 301.29416 305.84909 309.10089 314.30142 324.35574 328.91068 333.46561 339.32364 345.82727 350.44199 354.01657 359.87463 364.42957 374.185 383.35464 387.90958 394.41321 405.12506 411.62869 414.88049 419.49521 424.69574 429.25064 434.45117 439.0061 449.71796 454.91846 460.77652 465.39124 468.64304 475.14667"
           y="24.409"
           sodipodi:role="line"
           id="tspan182">AfewtransformsthatsatisfytheseconditionsaretheFouriertransform,thediscretecosine</tspan><tspan
           x="-29.888 -25.333069 -20.778137 -14.92009 -8.416461 -3.8017535 -0.2271488 5.6308994 10.18583 23.384371 29.242418 35.746048 45.704731 50.259663 56.76329 65.418854 73.560349 79.095604 84.953651 90.15416 93.405975 98.606491 106.60452 111.15945 115.71438 121.57243 128.07607 132.69077 136.26537 142.12341 146.67834 156.43379 164.74266 175.80121 181.33647 187.19452 192.39503 195.64685 200.84737 208.84538 213.40031 217.95525 223.81329 230.31693 234.93164 238.50624 244.36429 248.91922 262.12973 265.38153 273.45129 279.95493 284.56961 289.77014 299.72882 302.98062 312.92737 317.4823 323.98593 327.23773 335.3075 340.508 346.36606 350.98077 356.18127 362.9838 367.59848 370.85031 377.35394 382.55444 391.21002 394.46182 402.4718 408.97543 413.53036 419.07758 425.25842 428.51022 435.01385 440.21439 448.27219 454.13022 457.38205 464.0889 468.64383 475.14746"
           y="38.855"
           sodipodi:role="line"
           id="tspan184">transformandthewavelettransform.Wavelettransformisusedinthiscase,sinceitprovidesallthe</tspan><tspan
           x="-29.888 -25.333069 -19.164186 -13.306138 -10.054323 -1.5422208 2.0323839 7.8904319 16.342758 23.169178 28.36969 32.924622 36.499226 42.357273 46.912205 56.667648 59.919464 66.423088 76.178535 85.623146 92.12677 95.378586 99.933517 103.18533 107.08273 111.63766 116.83817 121.45287 127.31093 130.56274 137.06636 141.62129 144.87311 150.73116 161.13219 166.99023 173.49387 179.35191 182.60373 188.78456 193.39928 196.65108 201.26579"
           y="53.300999"
           sodipodi:role="line"
           id="tspan186">toolsforperformingmulti-resolutionanalysis.</tspan></text><text
         transform="matrix(1,0,0,-1,-29.48,-152.405)"
         style="font-variant:normal;font-size:11.9552px;font-family:LMRoman12-Bold-Identity;-inkscape-font-specification:LMRoman12-Bold-Identity-H;writing-mode:lr-tb;fill:#000000;fill-opacity:1;fill-rule:nonzero;stroke:none"
         id="text192"><tspan
           x="0 12.768153 18.937037 25.667814 31.800833 35.542809 41.675827 46.912205"
           y="0"
           sodipodi:role="line"
           id="tspan190">Wavelets</tspan></text><text
         transform="matrix(1,0,0,-1,-29.48,-174.579)"
         style="font-variant:normal;font-size:11.9552px;font-family:LMRoman12-Regular-Identity;-inkscape-font-specification:LMRoman12-Regular-Identity-H;writing-mode:lr-tb;fill:#000000;fill-opacity:1;fill-rule:nonzero;stroke:none"
         id="text200"><tspan
           x="0 7.4720001 19.020723 24.567936 30.425983 35.626495 40.181427 45.381939 51.239986 60.99543 71.88662 76.441551 82.945175 93.84832 98.463028 104.96666 110.82471 115.37964 119.93456 125.13508 130.99313 140.74857 144.00038 150.50401 156.36206 166.6794 172.53745 181.80272 186.35765 190.91258 196.77063 203.27426 206.52608 211.08101 214.33282 220.19087 226.6945 232.55255 241.50699 246.06192 250.61685 256.47491 262.97855 267.59323 271.16785 277.02591 281.58081 291.33627 301.65359 306.26831 312.77194 317.66162 329.85593 335.71396 346.01935 350.57428 357.07791 367.98105 376.92355 380.17535 384.79007 389.99057 394.5455 399.74603 404.30096 415.2041 421.87509 427.73315 434.23679 438.79172 442.04352 447.24402 457.48962 464.9736 469.52853 475.38657 481.8902 486.50491 490.07953 495.93756 500.49249"
           y="0"
           sodipodi:role="line"
           id="tspan194">ToovercometheshortcomingsoftraditionaltransformssuchastheDiscreteFourierTransform</tspan><tspan
           x="0 4.5549312 13.497421 21.136793 29.589121 34.144051 41.185665 50.128155 53.379967 57.994675 63.195187 67.750122 72.95063 77.505562 86.495872 94.948196 100.80624 105.42095 108.67277 115.1764 124.17867 131.66261 136.21754 142.07559 148.57922 153.19394 156.76854 162.62659 167.18152 180.7148 185.26973 194.21222 201.85159 210.30392 214.85886 221.91243 228.41605 234.91968 240.77773 245.33266 253.67738 262.12973 265.38153 275.13696 284.12729 290.81024 296.66827 303.17191 307.72684 310.97867 316.17917 324.51196 331.18295 337.04099 343.54462 348.09955 351.35138 356.55188 364.88467 372.36862 376.92355 382.78159 389.28522 393.89993 397.47455 403.33258 407.88751 421.43277 425.9877 432.4913 440.94363 448.58301 457.03534 461.59027 468.6319 474.48993 480.99356 491.29895 500.48053 506.33859"
           y="14.446"
           sodipodi:role="line"
           id="tspan196">(DFT),DiscreteCosineTransform(DFT),ShortTimeFourierFourierTransform(STFT),andGa-</tspan><tspan
           x="0 6.8144641 12.672512 21.973658 29.457613 34.012543 39.87059 46.374222 50.98893 54.563534 60.421581 64.976509 74.731956 82.921265 87.476196 93.979828 103.9146 110.41823 115.61874 120.81925 132.05714 135.63174 141.48979"
           y="28.892"
           sodipodi:role="line"
           id="tspan198">borTransform,theneedfor</tspan></text><text
         transform="matrix(1,0,0,-1,121.311,-203.471)"
         style="font-style:italic;font-variant:normal;font-size:11.9552px;font-family:LMRoman12-Italic-Identity;-inkscape-font-specification:LMRoman12-Italic-Identity-H;writing-mode:lr-tb;fill:#000000;fill-opacity:1;fill-rule:nonzero;stroke:none"
         id="text204"><tspan
           x="0 7.7708802 13.74848 19.128321 24.50816 27.49696 32.876801 36.762241"
           y="0"
           sodipodi:role="line"
           id="tspan202">wavelets</tspan></text><text
         transform="matrix(1,0,0,-1,167.725,-203.471)"
         style="font-variant:normal;font-size:11.9552px;font-family:LMRoman12-Regular-Identity;-inkscape-font-specification:LMRoman12-Regular-Identity-H;writing-mode:lr-tb;fill:#000000;fill-opacity:1;fill-rule:nonzero;stroke:none"
         id="text224"><tspan
           x="0 5.858048 10.412979 13.664794 18.279501 23.480013 29.983641 40.94656 49.398888 55.902515 65.837288 69.411888 75.269936 81.773567 86.328499 89.580315 94.780823 104.08197 109.94002 116.44365 122.3017 125.55351 131.73434 136.34906 139.60088 148.94984 155.45346 160.00839 165.5556 171.73645 174.98827 181.4919 186.6924 196.02942 201.89941 207.09993 218.01503 221.26685 227.77048 231.34508 237.20312 241.75806 251.5135 257.37155 261.92648 265.17828 271.03635 282.27423 285.52603 296.76392 301.31885 307.82248"
           y="0"
           sodipodi:role="line"
           id="tspan206">arised.Thefourieranalysisprovideskeyinformationinthe</tspan><tspan
           x="-197.205 -193.6304 -189.07547 -183.87495 -177.69411 -171.19049 -165.98997 -159.48634 -154.28583 -144.49452 -137.99089 -132.13284 -122.3774 -116.51936 -113.26754 -103.15344 -94.701118 -88.197487 -84.945671 -81.693855 -72.882874 -69.308273 -63.450222 -60.198406 -56.946594 -48.709461 -44.15453 -34.686012 -28.182383 -23.627451 -18.080238 -11.8994 -8.6475859 -2.1439569 6.6670256 12.525074 18.717867 28.497221 31.749035 38.252663 41.827271 47.685318 52.24025 61.995689 67.853737 72.408669 75.660484 81.518532 91.632629 96.187561 101.38808 107.24612 113.10417 117.6591 124.16273 127.41454 133.91817 143.39865 147.95358 154.45721 163.26819 167.82312 171.07494 180.83038 189.64136 196.14499 202.00304 211.75848 217.61653 220.86835 227.37198 235.72865 244.18098 250.68462 259.49561 265.99924 274.45154 282.09091 294.16568 300.02371 306.52734"
           y="14.446"
           sodipodi:role="line"
           id="tspan208">frequencydomainwhilefailstoprovideanyinformationregardingthetimedomain.TheSTFTand</tspan><tspan
           x="-197.205 -192.65007 -186.14644 -177.51479 -168.33319 -162.47514 -155.64873 -149.79068 -141.79265 -134.30869 -129.75377 -123.89571 -117.39208 -112.77737 -109.20277 -103.34473 -98.789795 -85.615166 -81.060234 -74.556602 -66.104279 -58.464905 -46.569481 -38.117153 -34.865337 -30.310408 -20.363682 -11.182088 -5.3240399 1.1795888 5.7942958 10.409003 13.660817 19.518866 29.453636 37.905964 41.157776 47.661407 54.165035 59.71225 71.595718 75.170319 81.67395 88.177582 93.37809 97.933022 101.18484 107.04288 113.54652 121.54454 128.04817 132.6031 138.15031 144.33115 147.58296 154.08659 162.7063 167.90681 173.76486 180.26848 185.46899 191.97263 196.52756 201.08249 206.283 212.4758 220.46187 223.71368 230.21732 233.79192 239.64996 244.2049 253.96034 259.81839 264.37332 267.62512 273.48318 283.4299 289.28796 296.11438 301.97241 308.47604"
           y="28.892"
           sodipodi:role="line"
           id="tspan210">theGaborTransform(STFTwithGaussianwindowfunction)provideconcurrentinformationabout</tspan><tspan
           x="-197.205 -190.39053 -184.53249 -179.97755 -169.01463 -164.4597 -161.20789 -151.45245 -141.8046 -135.94655 -129.44293 -118.49197 -114.91736 -110.36243 -105.16192 -98.981079 -92.477448 -87.276939 -80.773308 -75.572792 -70.360329 -62.529671 -56.026043 -49.522415 -40.520149 -35.965218 -29.461588 -19.813742 -11.361416 -8.109602 -1.6059728 4.897656 10.444869 23.332575 27.947281 31.199097 36.399609 46.05941 49.311226 58.373264 61.62508 71.380524 80.825134 87.328758 91.88369 97.741737 104.24537 107.49718 112.69769 122.78788 130.75005 135.36475 139.97946 145.17998 151.37277 155.9277 159.1795 165.03757 168.28937 171.54118 176.7417 184.57236 187.82417 196.82643 200.07825 209.14029 215.64392 221.50197 230.50424 237.33066 243.18871 247.80341 252.41812 255.66994 262.17355 265.42538 275.07321 279.62814 289.9455 293.1973 299.70093 303.27554 308.47604"
           y="43.338001"
           sodipodi:role="line"
           id="tspan212">bothtimeandfrequency,butthewindowsizeisimmutable.Essentially,itisnotpossibletoinfer</tspan><tspan
           x="-197.205 -192.65007 -186.14644 -177.06049 -171.85997 -165.67914 -159.82109 -154.62057 -146.16826 -142.59364 -138.03871 -132.8382 -126.65736 -120.15373 -114.95322 -108.44959 -103.24908 -93.170853 -87.312805 -80.809174 -70.40815 -65.853218 -59.34959 -50.251682 -45.05117 -38.870331 -33.012283 -27.811771 -19.34749 -14.792559 -11.540744 -1.7853009 7.3126063 13.170654 20.642654 26.823492 32.024006 37.224518 43.728146 48.283077 53.483589 59.987217 65.187729 74.285637 80.143684 87.615685 92.170616 98.674248 104.5323 112.98462 116.55923 121.11416 126.31467 132.4955 138.99913 144.19965 150.70328 155.90379 165.98203 169.23384 179.63486 184.18979 190.69342 199.79132 204.40604 207.65785 213.5159 220.01953 225.87758 229.12939"
           y="57.783001"
           sodipodi:role="line"
           id="tspan214">theexactfrequencyandtheexacttimeofoccurenceofthatfrequencyinthesignal.</tspan><tspan
           x="-179.27299 -170.82068 -164.31705 -154.37032 -149.81538 -144.61487 -138.75682 -134.14212 -128.28407 -117.02227 -112.46735 -105.96371 -100.10567 -90.792564 -82.651077 -77.115814 -71.257767 -66.057259 -62.805443 -57.604931 -53.049999 -43.701031 -37.842983 -33.288052 -23.32937 -16.825743 -12.270811 -7.0702991 -3.4956944 1.7048177 6.2597489 10.81468 16.015192 27.265036 30.83964 36.697689 46.010788 49.262604 59.018047 64.876091 70.734146 80.692825 86.550873 93.054504 98.912552 102.16436 108.3452 112.95991 116.21172 125.57265 128.82446 138.19734 144.70096 151.20459 161.16327 165.7182 176.32246 180.8774 187.38103 197.33971 200.91432 206.77237 211.97287 221.28598 225.84091 232.34454 238.20259 247.50372 250.75554 260.06863 266.57227 271.1272 276.67441 282.85526 286.10706 292.61069 297.81122 307.17212"
           y="72.228996"
           sodipodi:role="line"
           id="tspan216">Thereasonthatwaveletsarepreferredforimageanalysisisduetothefactthatitprovidesa</tspan><tspan
           x="-197.205 -190.70137 -187.44955 -182.24904 -177.69411 -171.83606 -167.28113 -162.40341 -155.89978 -152.64796 -147.44746 -141.58942 -134.83472 -128.97667 -124.42175 -118.5637 -112.06007 -108.80825 -102.30462 -92.943703 -87.085655 -80.008171 -75.453239 -68.949615 -60.246227 -55.691299 -52.439484 -42.68404 -33.980656 -28.122606 -21.618979 -11.612475 -8.0378704 -3.4829392 1.7175728 7.8984113 14.40204 19.602552 26.10618 31.306692 40.990406 44.242218 50.74585 54.320454 60.178501 64.733429 74.488876 80.346924 84.901855 88.153671 94.011719 100.51534 108.82421 117.27654 123.78017 132.48355 136.05815 141.9162 147.11671 155.18648 159.74141 166.24504 172.10309 180.16089 183.4127 188.95992 200.90315 204.47777 209.0327 214.23322 220.41405 226.91768 232.11819 238.62181 243.82233 253.50604 256.75784 263.26147 266.83609 272.69412 277.24905 287.00452 292.86255 297.41748 300.66931 306.52734"
           y="86.675003"
           sodipodi:role="line"
           id="tspan218">hierarchicalgradingofthetimeandfrequencyinformation.Thefactthatlowfrequencyinformation</tspan><tspan
           x="-197.205 -192.00449 -185.82365 -182.57184 -177.95712 -173.40219 -164.34015 -160.76555 -154.9075 -145.90524 -135.58791 -132.33609 -126.47803 -119.97441 -114.11636 -108.91585 -99.901627 -93.075211 -87.874695 -83.319763 -80.067947 -73.887115 -62.93615 -57.078102 -49.044205 -44.489277 -41.237461 -31.482018 -21.834171 -15.976123 -9.4724941 1.490424 6.0453553 12.548984 22.196831 28.700459 31.952274 37.810322 48.773239 52.347843 56.902775 62.103287 68.284126 74.787758 79.988266 86.491898 91.692406 102.32058 105.5724 112.07603 115.65063 121.50867 126.06361 135.81905 141.67709 146.23203 149.48384 155.34189 166.30481 171.19449 177.69812 183.55617 190.0598 195.91785 201.11835 210.16844 214.72337 220.58142 227.08505 230.33687 236.84048 240.0923 250.73244 259.18475 262.43658 266.99152 277.94247 282.49741 285.74921 295.50467 305.16446 308.41626"
           y="101.121"
           sodipodi:role="line"
           id="tspan220">existsforalongerperiodoftimeandthehighfrequencyinformationchangesrapidlywithtimeis</tspan><tspan
           x="-197.205 -192.00449 -185.82365 -179.32002 -176.06821 -170.21016 -166.95834 -162.40341 -157.2029 -146.51495 -143.26314 -132.56323 -124.42175 -118.88648 -113.02843 -107.82793 -104.57611 -99.375595 -90.6483 -84.790253 -78.286629 -72.428581 -69.176765 -62.995926 -58.381218 -55.129402 -50.514694 -41.18964 -36.969456 -26.26955 -21.714619 -15.21099 -5.8142033 -0.61369121 5.2443566 9.8590641 19.243896 25.101944 32.872826 36.124638 45.880081 51.738129 57.596176 66.98101 72.839058 79.34269 85.200737 88.452545 94.633385 99.248093 102.49991 107.11462"
           y="115.567"
           sodipodi:role="line"
           id="tspan222">exploitedinwaveletanalysis.Inthecaseofimageanalysis,</tspan></text><text
         transform="matrix(1,0,0,-1,282.362,-319.038)"
         style="font-style:italic;font-variant:normal;font-size:11.9552px;font-family:LMRoman12-Italic-Identity;-inkscape-font-specification:LMRoman12-Italic-Identity-H;writing-mode:lr-tb;fill:#000000;fill-opacity:1;fill-rule:nonzero;stroke:none"
         id="text228"><tspan
           x="0 3.8854401 7.4720001 17.03616"
           y="0"
           sodipodi:role="line"
           id="tspan226">time</tspan></text><text
         transform="matrix(1,0,0,-1,309.053,-319.038)"
         style="font-variant:normal;font-size:11.9552px;font-family:LMRoman12-Regular-Identity;-inkscape-font-specification:LMRoman12-Regular-Identity-H;writing-mode:lr-tb;fill:#000000;fill-opacity:1;fill-rule:nonzero;stroke:none"
         id="text232"><tspan
           x="0 3.2518144 12.050841 17.251354 23.432192 29.935822 33.187634 38.734848 44.592896 47.844711 53.045223 59.226059 67.965309 72.520241"
           y="0"
           sodipodi:role="line"
           id="tspan230">isequivalentto</tspan></text><text
         transform="matrix(1,0,0,-1,391.622,-319.038)"
         style="font-style:italic;font-variant:normal;font-size:11.9552px;font-family:LMRoman12-Italic-Identity;-inkscape-font-specification:LMRoman12-Italic-Identity-H;writing-mode:lr-tb;fill:#000000;fill-opacity:1;fill-rule:nonzero;stroke:none"
         id="text236"><tspan
           x="0 4.7820802 10.173875 16.151476 21.531315 25.117876 31.095476 38.567474 44.545074 48.896767 53.678848"
           y="0"
           sodipodi:role="line"
           id="tspan234">spacialarea</tspan></text><text
         transform="matrix(1,0,0,-1,451.271,-319.038)"
         style="font-variant:normal;font-size:11.9552px;font-family:LMRoman12-Regular-Identity;-inkscape-font-specification:LMRoman12-Regular-Identity-H;writing-mode:lr-tb;fill:#000000;fill-opacity:1;fill-rule:nonzero;stroke:none"
         id="text242"><tspan
           x="0 9.3250561 17.777382 24.281012"
           y="0"
           sodipodi:role="line"
           id="tspan238">.The</tspan><tspan
           x="-480.75101 -474.24738 -467.74374 -463.18881 -457.33075 -452.71606"
           y="14.446"
           sodipodi:role="line"
           id="tspan240">phrase</tspan></text><text
         transform="matrix(1,0,0,-1,8.091,-333.484)"
         style="font-style:italic;font-variant:normal;font-size:11.9552px;font-family:LMRoman12-Italic-Identity;-inkscape-font-specification:LMRoman12-Italic-Identity-H;writing-mode:lr-tb;fill:#000000;fill-opacity:1;fill-rule:nonzero;stroke:none"
         id="text246"><tspan
           x="0 2.9888 8.9664001 21.387854 24.974413 29.326105 34.108185 39.488026 45.764507 51.144344 57.719707 63.099545 73.416885 78.210915 84.188515 93.752678 99.132515 105.11012 111.68548 117.06532 123.64068 127.52612 136.95877 142.33861 147.71844 151.30501 156.0871 164.62311 168.20967 179.43559 182.42439 188.40199 192.75369 198.13353 203.51337 213.10144 217.88351 223.27531 229.25291 234.63275 238.21931 244.19691 251.82433 257.80194 262.15363 266.9357"
           y="0"
           sodipodi:role="line"
           id="tspan244">lowfrequencycomponentsexistinlargerspacialarea</tspan></text><text
         transform="matrix(1,0,0,-1,285.491,-333.484)"
         style="font-variant:normal;font-size:11.9552px;font-family:LMRoman12-Regular-Identity;-inkscape-font-specification:LMRoman12-Regular-Identity-H;writing-mode:lr-tb;fill:#000000;fill-opacity:1;fill-rule:nonzero;stroke:none"
         id="text252"><tspan
           x="0 3.2518144 9.7554436 16.259071 19.510887 24.711399 30.569447 35.124378 40.32489 49.26738 53.822311 60.325939 66.18399 75.078659 79.633591 86.137215 95.677467 102.18109 105.43291 111.61375 116.81426 124.39385 129.94107 135.79912 139.05093 145.55457 150.75507 159.69756 162.94937 173.79274 178.34767 184.8513 190.70935"
           y="0"
           sodipodi:role="line"
           id="tspan248">indicatesthatthepixelvaluesinthat</tspan><tspan
           x="-314.97101 -310.41608 -305.21555 -299.35751 -296.10568 -290.24765 -278.67502 -272.17139 -266.31332 -259.80969 -253.95166 -244.31577 -239.42609 -232.92245 -227.06441 -220.56079 -214.70274 -204.43323 -199.81851 -196.5667 -190.70865 -184.20502 -180.9532 -174.44958 -169.24907 -163.39102 -157.19823 -152.6433 -149.39148 -144.19096 -132.21185 -125.70823 -122.45641 -112.70097 -109.44916 -106.19734 -100.33929 -95.784363 -92.532547 -87.320084"
           y="14.445"
           sodipodi:role="line"
           id="tspan250">regiondonotchangesignifcantly.Similarly,</tspan></text><text
         transform="matrix(1,0,0,-1,206.783,-347.929)"
         style="font-style:italic;font-variant:normal;font-size:11.9552px;font-family:LMRoman12-Italic-Identity;-inkscape-font-specification:LMRoman12-Italic-Identity-H;writing-mode:lr-tb;fill:#000000;fill-opacity:1;fill-rule:nonzero;stroke:none"
         id="text256"><tspan
           x="0 5.9776001 9.5641603 14.944 26.373171 29.959732 34.311424 39.093506 44.473343 50.749825 56.129665 62.705025 68.084862 79.203201 83.997238 89.974838 99.538994 104.91884 110.89644 117.47179 122.85164 129.427 133.31244"
           y="0"
           sodipodi:role="line"
           id="tspan254">highfrequencycomponents</tspan></text><text
         transform="matrix(1,0,0,-1,350.075,-347.929)"
         style="font-variant:normal;font-size:11.9552px;font-family:LMRoman12-Regular-Identity;-inkscape-font-specification:LMRoman12-Regular-Identity-H;writing-mode:lr-tb;fill:#000000;fill-opacity:1;fill-rule:nonzero;stroke:none"
         id="text264"><tspan
           x="0 4.5549312 9.7554436 13.330048 18.53056 23.085491 32.769203 37.324135 48.263142 52.818073 59.321701 69.603172 76.106804 82.610435 87.810944 97.434883 103.93851 109.13902 113.69395 119.552 122.80382 126.05563"
           y="0"
           sodipodi:role="line"
           id="tspan258">referstothefnerdetails</tspan><tspan
           x="-379.55499 -371.10266 -364.59906 -361.34723 -356.46951 -345.86523 -340.97556 -334.47195 -328.61389 -322.11026 -316.25223 -306.95108 -302.39615 -296.53809 -290.03445 -286.78265 -280.27902 -277.02719 -266.73376 -263.48196 -252.86575 -248.25104 -241.74741 -235.88936 -230.68884 -225.48834 -216.39043 -207.61531 -204.36349 -198.50545 -192.00182 -186.80132 -178.13379 -173.57886 -168.37834 -158.62291 -151.79648 -145.93843 -141.3835 -135.52545 -128.16106 -122.30301 -117.10249 -111.90199 -105.39835 -100.84342 -94.985374 -89.784859 -79.491432 -76.239624 -67.512321 -62.957394 -57.756882 -51.576042 -45.072414 -41.820599 -37.265667 -32.065155 -21.448938 -16.894009 -6.9233713 -1.0653232 5.4383054 10.053013 15.253525 19.808456 25.678459 34.979607 39.534534 46.038166 55.351265 61.854893 65.106712 70.96476 81.580971 85.155579 89.71051 94.911026 101.09186 107.59549 112.79601 119.29963 124.50014"
           y="14.446"
           sodipodi:role="line"
           id="tspan260">whichchangerapidlyinspace.Highertemporalaccuracyisrequiredtoobservethehighfrequency</tspan><tspan
           x="-379.55499 -374.35449 -368.49643 -358.741 -351.92654 -346.06848 -339.56485 -334.36435 -328.17154 -323.61661 -315.11649 -309.25842 -302.75479 -292.35376 -286.17294 -282.92111 -277.72061 -272.52008 -268.62271 -262.75269 -257.55219 -252.99725 -248.38255 -242.52449"
           y="28.892"
           sodipodi:role="line"
           id="tspan262">componentsandvice-versa.</tspan></text><g
         id="g266"
         transform="matrix(1.80573,0,0,1.80573,-64.995115,483.27016)"><g
           id="g268"
           transform="matrix(0.3,0,0,0.3,69.853375,-423.15458)"><g
             id="g270"
             transform="translate(98.055,-604.464)"><g
               id="g272"><g
                 id="g274"
                 clip-path="url(#clipPath278)"><g
                   id="g280"
                   transform="matrix(1,0,0,-1,0,390.19299)"><g
                     id="g282"><g
                       id="g284"><path
                         d="m 110.652,0.375 h 360 v 360 h -360 z"
                         style="fill:#b3b3b3;fill-opacity:1;fill-rule:evenodd;stroke:#1a1a1a;stroke-width:0.749999;stroke-linecap:butt;stroke-linejoin:miter;stroke-miterlimit:4;stroke-dasharray:none;stroke-opacity:1"
                         id="path286" /></g><g
                       id="g288"><path
                         d="m 110.652,300.375 c 360,0 360,0 360,0"
                         style="fill:none;stroke:#000000;stroke-width:0.749999;stroke-linecap:butt;stroke-linejoin:miter;stroke-miterlimit:4;stroke-dasharray:none;stroke-opacity:1"
                         id="path290" /></g><g
                       id="g292"><path
                         d="m 110.652,180.375 c 360,0 360,0 360,0"
                         style="fill:none;stroke:#000000;stroke-width:0.749999;stroke-linecap:butt;stroke-linejoin:miter;stroke-miterlimit:4;stroke-dasharray:none;stroke-opacity:1"
                         id="path294" /></g><g
                       id="g296"><path
                         d="m 290.652,180.375 c 0,120 0,120 0,120"
                         style="fill:none;stroke:#000000;stroke-width:0.749999;stroke-linecap:butt;stroke-linejoin:miter;stroke-miterlimit:4;stroke-dasharray:none;stroke-opacity:1"
                         id="path298" /></g><g
                       id="g300"><path
                         d="m 200.652,0.375 c 0,180 0,180 0,180"
                         style="fill:none;stroke:#000000;stroke-width:0.749999;stroke-linecap:butt;stroke-linejoin:miter;stroke-miterlimit:4;stroke-dasharray:none;stroke-opacity:1"
                         id="path302" /></g><g
                       id="g304"><path
                         d="m 290.652,0.375 v 180"
                         style="fill:none;stroke:#000000;stroke-width:0.749999;stroke-linecap:butt;stroke-linejoin:miter;stroke-miterlimit:4;stroke-dasharray:none;stroke-opacity:1"
                         id="path306" /></g><g
                       id="g308"><path
                         d="m 380.652,0.375 v 180"
                         style="fill:none;stroke:#000000;stroke-width:0.749999;stroke-linecap:butt;stroke-linejoin:miter;stroke-miterlimit:4;stroke-dasharray:none;stroke-opacity:1"
                         id="path310" /></g><text
                       transform="translate(279.96206,389.90977)"
                       style="font-variant:normal;font-weight:normal;font-size:20px;font-family:'DejaVu Sans';-inkscape-font-specification:DejaVuSans;writing-mode:lr-tb;fill:#000000;fill-opacity:1;fill-rule:nonzero;stroke:none"
                       id="text316"><tspan
                         x="0 11.56 17.1 36.580002"
                         y="0"
                         sodipodi:role="line"
                         id="tspan312">Time</tspan><tspan
                         x="-281.92496 -271.88495 -264.10495 -251.80496 -239.12495 -226.46497 -214.16496 -201.56496 -190.58496"
                         y="-229.5482"
                         sodipodi:role="line"
                         id="tspan314">Frequency</tspan></text></g></g></g></g></g></g></g><text
         transform="matrix(1,0,0,-1,132.784,-624.539)"
         style="font-variant:normal;font-size:11.9552px;font-family:LMRoman12-Regular-Identity;-inkscape-font-specification:LMRoman12-Regular-Identity-H;writing-mode:lr-tb;fill:#000000;fill-opacity:1;fill-rule:nonzero;stroke:none"
         id="text320"><tspan
           x="0 7.6393728 10.891188 16.749235 23.252865 27.807795 36.905701 42.763752 46.015564 51.873611 60.313984 71.037796 77.541428 80.793243 85.348175 88.599991 93.154915 98.355431 102.97014 108.82819 112.08 118.58363 123.13856 126.39037 132.24843 142.64944 151.42456 157.92819 163.78624 167.03806 173.21889 177.8336 181.08542"
           y="0"
           sodipodi:role="line"
           id="tspan318">Figure1.2:MultiresolutionAnalysis</tspan></text><text
         transform="matrix(1,0,0,-1,-11.548,-654.947)"
         style="font-variant:normal;font-size:11.9552px;font-family:LMRoman12-Regular-Identity;-inkscape-font-specification:LMRoman12-Regular-Identity-H;writing-mode:lr-tb;fill:#000000;fill-opacity:1;fill-rule:nonzero;stroke:none"
         id="text328"><tspan
           x="0 7.6513281 12.85184 17.406771 20.981377 26.839424 31.394356 41.149799 44.401611 50.905243 60.505268 68.646759 74.182014 80.040062 85.240578 88.492393 93.692902 102.00177 107.85982 114.36344 120.22149 123.4733 129.65414 134.26884 137.52066 145.90126 152.09406 162.02882 168.53246 173.08739 176.3392 179.59102 182.84283 188.04333 191.29515 197.79878 207.42271 217.04666 221.66136 226.86188 232.71992 235.97174 241.82979 248.33342 251.58524 260.55164 266.40967 272.9133 283.17087 292.9263 299.10715 305.61078 312.11441 315.36621 321.22427 325.77921 330.97971 341.24924 349.70157 352.95337 359.457 365.96063 371.50784 383.71411 388.26904 397.89297 403.09348 408.95154 412.20334 417.40384 423.90747 427.1593 433.01733 437.57227 446.53867 451.0936 457.59723 466.56363 471.17834 478.00476 483.20526 488.40579"
           y="0"
           sodipodi:role="line"
           id="tspan322">Performingwaveletanalysisbyutilizingascalableandmodulatedwindowtocalculatethespec-</tspan><tspan
           x="-17.931999 -13.377069 -8.8221378 -2.3185089 11.095225 15.650157 20.850668 27.677088 32.877602 38.735649 43.290581 48.491093 54.99472 58.246536 68.097618 74.60125 79.156181 84.703392 90.884232 94.136047 100.63967 105.84019 114.11318 118.66811 125.17175 134.0425 140.54613 145.74664 150.94716 156.14767 160.76237 165.37708 171.23512 175.79005 185.64114 190.84166 196.69971 199.95152 203.20334 208.40384 213.60435 218.15929 221.4111 227.26915 237.43108 243.28912 250.53397 255.0889 258.34073 268.09616 273.29666 277.19406 280.76868 285.32361 290.52411 296.70496 303.20859 308.40909 314.91272 320.11322 329.96432 334.51926 339.71976 346.22339 350.77832 355.97882 360.59354 365.79407 371.98685 376.54178 382.39984 386.95477 390.20657 396.06461 402.56824 410.84125 416.69931 423.94415 428.49908 435.00272 443.86151 448.47623 451.72803 457.58609 464.08972 469.94775 473.19958 481.58017 485.80035"
           y="14.446"
           sodipodi:role="line"
           id="tspan324">trumrepeatedlyprovidesthenecessarycollectionoftime-frequencyrepresentationsofthesignal.In</tspan><tspan
           x="-17.931999 -13.377069 -6.8734398 -3.6216257 4.6155071 9.8160191 15.674067 21.866861 26.421791 31.622305 37.803143 42.358074 49.292091 55.795719 60.996231 66.196739 70.751671 75.952187 81.810234 86.424942 89.676758 96.180382 105.66086 110.21579 116.71942 125.55431 130.16902 135.36952 141.22758 144.47939 153.31429 156.5661 164.81519 170.0157 176.19653 182.70016 185.95198 191.49919 197.35724 200.60905 205.80957 211.9904 220.16777 224.7227 234.20317 237.77777 243.95862 249.15912 255.66275 260.27747 263.52927 270.0329 279.52533 285.38339 295.52139 302.02502 305.27682 311.13489 317.63852 322.83902 331.02832 337.53195 342.73248 347.28741 353.14545 356.39728 359.64908"
           y="28.891001"
           sodipodi:role="line"
           id="tspan326">thiscontext,decreasingthescaleisequivalenttofocusingonhigherdetail.</tspan></text><text
         transform="matrix(1,0,0,-1,356.465,-683.838)"
         style="font-style:italic;font-variant:normal;font-size:11.9552px;font-family:LMRoman12-Italic-Identity;-inkscape-font-specification:LMRoman12-Italic-Identity-H;writing-mode:lr-tb;fill:#000000;fill-opacity:1;fill-rule:nonzero;stroke:none"
         id="text332"><tspan
           x="0 6.5753598 11.35744 17.335039 20.323839 23.9104 30.48576"
           y="0"
           sodipodi:role="line"
           id="tspan330">Scaling</tspan></text><text
         transform="matrix(1,0,0,-1,396.297,-683.838)"
         style="font-variant:normal;font-size:11.9552px;font-family:LMRoman12-Regular-Identity;-inkscape-font-specification:LMRoman12-Regular-Identity-H;writing-mode:lr-tb;fill:#000000;fill-opacity:1;fill-rule:nonzero;stroke:none"
         id="text338"><tspan
           x="0 4.5549312 9.7554436 13.330048 18.53056 23.085491 31.322624 35.877556 45.369984 48.621799 55.125427 60.325939 64.880867 70.081383 75.93943 80.554138"
           y="0"
           sodipodi:role="line"
           id="tspan334">referstoincreas-</tspan><tspan
           x="-425.77701 -422.52518 -416.02155 -405.66837 -399.8103 -390.74826 -384.24463 -379.04413 -373.8436 -369.28867 -364.08817 -358.23013 -353.61542 -350.36359 -343.85995 -333.49481 -328.93988 -322.43625 -312.72864 -308.11392 -304.86212 -299.66159 -289.95398 -284.09592 -276.01422 -265.64905 -258.82263 -252.96458 -248.40965 -243.85472 -240.60291 -234.74486 -223.73412 -217.87607 -209.79436 -205.23943 -198.73579 -189.02817 -184.41347 -181.16165 -175.3036 -168.79997 -162.94193 -155.19496 -149.00217 -138.32617 -127.96101 -124.38641 -118.52836 -113.32785 -108.77292 -102.91487 -93.852829 -87.994781 -81.49115"
           y="14.446"
           sodipodi:role="line"
           id="tspan336">ingordecreasingthesizeofaportionofthesignalbyafactorand</tspan></text><text
         transform="matrix(1,0,0,-1,325.822,-698.284)"
         style="font-style:italic;font-variant:normal;font-size:11.9552px;font-family:LMRoman12-Italic-Identity;-inkscape-font-specification:LMRoman12-Italic-Identity-H;writing-mode:lr-tb;fill:#000000;fill-opacity:1;fill-rule:nonzero;stroke:none"
         id="text342"><tspan
           x="0 3.8854401 8.2251778 14.202778 20.778137 25.560217 28.549017 34.526619 38.412056 41.998619 47.976219"
           y="0"
           sodipodi:role="line"
           id="tspan340">translation</tspan></text><text
         transform="matrix(1,0,0,-1,385.154,-698.284)"
         style="font-variant:normal;font-size:11.9552px;font-family:LMRoman12-Regular-Identity;-inkscape-font-specification:LMRoman12-Regular-Identity-H;writing-mode:lr-tb;fill:#000000;fill-opacity:1;fill-rule:nonzero;stroke:none"
         id="text350"><tspan
           x="0 4.5549312 9.7554436 13.330048 18.53056 23.085491 32.195354 36.750286 47.115444 51.730152 58.23378 61.485592 65.060196 69.615128 72.866943 79.370575 89.735733"
           y="0"
           sodipodi:role="line"
           id="tspan344">referstoshiftinga</tspan><tspan
           x="-414.634 -410.01929 -406.76749 -400.90942 -394.40579 -388.54776 -381.32681 -376.77188 -371.22467 -363.09512 -357.23709 -352.68216 -346.17853 -337.5947 -333.03976 -326.53613 -317.35452 -312.79962 -309.54779 -303.68976 -297.49695 -288.9729 -283.11484 -274.57883 -270.0239 -263.52026 -254.33868 -251.08687 -245.88635 -242.31175 -237.75682 -229.06538 -220.61305 -214.10944 -204.92784 -198.42421 -192.56616 -187.95145 -184.69965 -176.10385 -172.52925 -166.02562 -159.52199 -154.32147 -149.76654 -146.51472 -140.65668 -130.18393 -121.7316 -115.22797 -111.97616 -107.08648 -96.613724 -91.999016 -86.798508 -80.94046 -77.688644 -72.488129 -63.892342 -58.034294 -51.530666 -41.045956 -36.491024 -31.936092 -26.078045 -19.574415 -14.959709 -11.707894 -5.8498464 -1.2949152 3.9055967 12.501386 17.056316 26.895447 32.753494 39.257122 45.11517 48.366985 54.547825 59.748337 68.929932 74.787979 79.342911 85.846535 91.04705"
           y="14.446"
           sodipodi:role="line"
           id="tspan346">signaltowardstherightortheleft.Thebasisfunctionwhichscalesandtranslatestoanalyzeother</tspan><tspan
           x="-414.634 -410.01929 -406.76749 -400.90942 -394.40579 -388.54776 -385.29593 -376.79581 -370.93774 -364.43411 -354.03308 -348.17505 -342.97452 -336.47092 -331.27039 -326.71545 -320.85742 -316.30249 -307.20456 -299.06308 -293.52783 -287.66977 -282.46927 -279.21744 -274.01694 -269.46201 -260.96185 -257.71005 -249.19794 -243.99744 -238.12743 -234.87561 -231.62379 -226.42328 -216.02226 -210.16422 -201.65211 -197.09718 -190.59355"
           y="28.892"
           sodipodi:role="line"
           id="tspan348">signalsandgeneratewaveletsiscalledasthe</tspan></text><text
         transform="matrix(1,0,0,-1,203.657,-727.176)"
         style="font-style:italic;font-variant:normal;font-size:11.9552px;font-family:LMRoman12-Italic-Identity;-inkscape-font-specification:LMRoman12-Italic-Identity-H;writing-mode:lr-tb;fill:#000000;fill-opacity:1;fill-rule:nonzero;stroke:none"
         id="text354"><tspan
           x="0 9.5641603 15.54176 19.4272 25.4048 30.784639 39.906456 47.677338 53.654938 59.034779 64.414619 67.403419 72.783257"
           y="0"
           sodipodi:role="line"
           id="tspan352">motherwavelet</tspan></text><text
         transform="matrix(1,0,0,-1,280.326,-727.176)"
         style="font-variant:normal;font-size:11.9552px;font-family:LMRoman12-Regular-Identity;-inkscape-font-specification:LMRoman12-Regular-Identity-H;writing-mode:lr-tb;fill:#000000;fill-opacity:1;fill-rule:nonzero;stroke:none"
         id="text358"><tspan
           x="0"
           y="0"
           id="tspan356">.</tspan></text><text
         transform="matrix(1,0,0,-1,222.709,-757.258)"
         style="font-variant:normal;font-size:11.9552px;font-family:LMRoman12-Regular-Identity;-inkscape-font-specification:LMRoman12-Regular-Identity-H;writing-mode:lr-tb;fill:#000000;fill-opacity:1;fill-rule:nonzero;stroke:none"
         id="text362"><tspan
           x="0"
           y="0"
           id="tspan360">2</tspan></text></g></g></svg>
